<svg xmlns="http://www.w3.org/2000/svg" width="1200" height="630" viewBox="0 0 1200 630">
  <defs>
    <linearGradient id="background" x1="0" y1="0" x2="1" y2="1">
      <stop offset="0" stop-color="#fffdfb"/>
      <stop offset="1" stop-color="#fff4ee"/>
    </linearGradient>
    <linearGradient id="accent" x1="0" y1="0" x2="1" y2="1">
      <stop offset="0" stop-color="#ff7454"/>
      <stop offset="1" stop-color="#f34f32"/>
    </linearGradient>
    <filter id="shadow" x="-20%" y="-20%" width="140%" height="140%">
      <feDropShadow dx="0" dy="12" stdDeviation="18" flood-color="#b8462d" flood-opacity=".16"/>
    </filter>
  </defs>
  <rect width="1200" height="630" fill="url(#background)"/>
  <circle cx="1090" cy="80" r="210" fill="#ffded3" opacity=".62"/>
  <circle cx="1040" cy="590" r="275" fill="#dff5f3" opacity=".7"/>
  <path d="M0 505c125-28 210-20 306 13 102 35 185 32 283-13 111-51 213-46 314-6 100 40 181 44 297 8v123H0z" fill="#f86342" opacity=".08"/>
  <g transform="translate(98 114)" filter="url(#shadow)">
    <rect width="126" height="126" rx="32" fill="url(#accent)"/>
    <path d="M29 31h68v20H74v48H52V51H29z" fill="#fff"/>
  </g>
  <text x="98" y="318" fill="#f45b3d" font-family="Arial, 'Malgun Gothic', sans-serif" font-size="86" font-weight="800" letter-spacing="-3">TeumSeoul</text>
  <text x="103" y="386" fill="#342d29" font-family="'Malgun Gothic', Arial, sans-serif" font-size="34" font-weight="600" letter-spacing="-1">약속 전후의 틈을 서울경험으로</text>
  <text x="104" y="437" fill="#776c65" font-family="'Malgun Gothic', Arial, sans-serif" font-size="21">서울의 장소와 여행 코스를 한눈에 탐색해 보세요</text>
  <g transform="translate(790 164)" fill="none" stroke-linecap="round" stroke-linejoin="round">
    <path d="M51 228c56-83 118-116 186-100 54 13 78 61 131 42" stroke="#f86342" stroke-width="12" opacity=".28"/>
    <path d="M34 250c83-28 143-14 183 41 34 46 83 47 152 0" stroke="#009c95" stroke-width="10" opacity=".2"/>
    <g transform="translate(188 68)">
      <path d="M62 2C29 2 2 29 2 62c0 48 60 105 60 105s60-57 60-105C122 29 95 2 62 2z" fill="#f86342" stroke="#fff" stroke-width="10"/>
      <circle cx="62" cy="62" r="22" fill="#fff"/>
    </g>
    <circle cx="65" cy="226" r="14" fill="#009c95" stroke="#fff" stroke-width="7"/>
    <circle cx="361" cy="171" r="13" fill="#f86342" stroke="#fff" stroke-width="7"/>
  </g>
</svg>
